# xmcd
#
# Track frame offsets:
#	150
#	13041
#	29592
#	43063
#	58221
#	73843
#	88503
#	102409
#	122104
#	135736
#	152359
#	169758
#	184673
#	197611
#	209268
#	225811
#	243349
#	260305
#	276239
#	289645
#
# Disc length: 4070 seconds
#
# Revision: 1
# Processed by: cddbd v1.4PL0 Copyright (c) Steve Scherf et al.
# Submitted via: EasyCDDAExtractor 6.2.0.3
#
DISCID=1a0fe414
DTITLE=Canto Bebo e Choro - Vol 10
DYEAR=1900
DGENRE=Country
TTITLE0=Arrependida
TTITLE1=Amor A 3
TTITLE2=Quebradas Da Noite
TTITLE3=Cabecnha No Ombro
TTITLE4=Não Quero Piedade
TTITLE5=Você Decide
TTITLE6=Seguindo Seus Passos
TTITLE7=Saudade Bandida
TTITLE8=Ainda Ontem Chorei De Saudades
TTITLE9=Que Pena
TTITLE10=Foi Pensando Em Você
TTITLE11=Favo De Mel
TTITLE12=Amando Escondido
TTITLE13=Pedaço De Minha Vida
TTITLE14=Menna Apaixonada
TTITLE15=O Bebum
TTITLE16=Amor E Saudade
TTITLE17=Não Me Deixe
TTITLE18=Não Me Deixe
TTITLE19=A Moda Da Pinga
EXTD=
EXTT0=
EXTT1=
EXTT2=
EXTT3=
EXTT4=
EXTT5=
EXTT6=
EXTT7=
EXTT8=
EXTT9=
EXTT10=
EXTT11=
EXTT12=
EXTT13=
EXTT14=
EXTT15=
EXTT16=
EXTT17=
EXTT18=
EXTT19=
PLAYORDER=
